<?xml version="1.0" encoding="utf-8"?>
<svg viewBox="-1.714 -5.257 100.791 31.242" width="100.791" height="31.242" xmlns="http://www.w3.org/2000/svg">
  <path d="M 3.377 16.864 L 11.768 16.864 L 11.768 19.428 L 0.165 19.428 L 0.165 0.944 L 3.377 0.944 Z" style="fill: rgb(33, 37, 41); white-space: pre;"/>
  <path d="M 22.123 19.428 Q 21.92 19.034 21.768 18.146 Q 20.295 19.682 18.162 19.682 Q 16.093 19.682 14.786 18.501 Q 13.478 17.321 13.478 15.581 Q 13.478 13.385 15.109 12.211 Q 16.741 11.036 19.775 11.036 L 21.666 11.036 L 21.666 10.135 Q 21.666 9.069 21.07 8.428 Q 20.473 7.786 19.254 7.786 Q 18.201 7.786 17.528 8.313 Q 16.855 8.84 16.855 9.653 L 13.77 9.653 Q 13.77 8.523 14.519 7.539 Q 15.268 6.555 16.557 5.996 Q 17.845 5.438 19.432 5.438 Q 21.844 5.438 23.279 6.65 Q 24.713 7.863 24.751 10.059 L 24.751 16.254 Q 24.751 18.108 25.272 19.212 L 25.272 19.428 Z M 18.734 17.206 Q 19.648 17.206 20.454 16.762 Q 21.26 16.318 21.666 15.569 L 21.666 12.979 L 20.003 12.979 Q 18.289 12.979 17.426 13.575 Q 16.563 14.172 16.563 15.264 Q 16.563 16.153 17.153 16.679 Q 17.744 17.206 18.734 17.206 Z" style="fill: rgb(33, 37, 41); white-space: pre;"/>
  <path d="M 40.05 15.175 L 42.233 5.692 L 45.242 5.692 L 41.497 19.428 L 38.958 19.428 L 36.012 9.995 L 33.118 19.428 L 30.579 19.428 L 26.821 5.692 L 29.83 5.692 L 32.051 15.074 L 34.87 5.692 L 37.193 5.692 Z" style="fill: rgb(33, 37, 41); white-space: pre;"/>
  <path d="M 58.52 11.874 L 51.207 11.874 L 51.207 19.428 L 47.399 19.428 L 47.399 0.944 L 59.434 0.944 L 59.434 4.029 L 51.207 4.029 L 51.207 8.802 L 58.52 8.802 Z" style="fill: rgb(39, 166, 160); white-space: pre;"/>
  <path d="M 65.27 19.428 L 61.588 19.428 L 61.588 5.692 L 65.27 5.692 Z M 61.372 2.137 Q 61.372 1.312 61.925 0.779 Q 62.477 0.245 63.429 0.245 Q 64.368 0.245 64.927 0.779 Q 65.486 1.312 65.486 2.137 Q 65.486 2.975 64.921 3.508 Q 64.356 4.041 63.429 4.041 Q 62.502 4.041 61.937 3.508 Q 61.372 2.975 61.372 2.137 Z" style="fill: rgb(39, 166, 160); white-space: pre;"/>
  <path d="M 76.011 9.132 Q 75.262 9.031 74.691 9.031 Q 72.609 9.031 71.961 10.44 L 71.961 19.428 L 68.292 19.428 L 68.292 5.692 L 71.758 5.692 L 71.86 7.329 Q 72.964 5.438 74.919 5.438 Q 75.528 5.438 76.062 5.603 Z" style="fill: rgb(39, 166, 160); white-space: pre;"/>
  <path d="M 81.215 5.692 L 81.329 7.228 Q 82.789 5.438 85.277 5.438 Q 87.93 5.438 88.921 7.532 Q 90.368 5.438 93.047 5.438 Q 95.281 5.438 96.373 6.739 Q 97.465 8.04 97.465 10.656 L 97.465 19.428 L 93.783 19.428 L 93.783 10.668 Q 93.783 9.5 93.326 8.961 Q 92.869 8.421 91.714 8.421 Q 90.063 8.421 89.428 9.995 L 89.441 19.428 L 85.772 19.428 L 85.772 10.681 Q 85.772 9.488 85.302 8.954 Q 84.833 8.421 83.703 8.421 Q 82.141 8.421 81.443 9.716 L 81.443 19.428 L 77.774 19.428 L 77.774 5.692 Z" style="fill: rgb(39, 166, 160); white-space: pre;"/>
</svg>